<svg width="24.000000" height="24.000000" viewBox="0 0 24 24" fill="none" xmlns="http://www.w3.org/2000/svg" xmlns:xlink="http://www.w3.org/1999/xlink">
	<desc>
			Created with Pixso.
	</desc>
	<defs/>
	<path d="M4.38 9.44C4.38 14.03 10.38 20.77 10.63 21.05C10.87 21.31 11.29 21.31 11.53 21.05C11.79 20.77 17.78 14.03 17.78 9.44C17.78 5.76 14.77 2.75 11.08 2.75C7.39 2.75 4.38 5.76 4.38 9.44Z" stroke="#999999" stroke-opacity="1.000000" stroke-width="1.500000" stroke-linejoin="round"/>
	<path d="M11.46 11.78C10.17 11.99 8.96 11.1 8.75 9.81C8.54 8.52 9.43 7.3 10.72 7.1C12.01 6.89 13.23 7.77 13.43 9.07C13.64 10.36 12.76 11.57 11.46 11.78Z" stroke="#999999" stroke-opacity="1.000000" stroke-width="1.500000" stroke-linejoin="round"/>
</svg>
