<svg width="443.000000" height="35.000000" viewBox="0 0 443 35" fill="none" xmlns="http://www.w3.org/2000/svg" xmlns:xlink="http://www.w3.org/1999/xlink">
	<desc>
			Created with Pixso.
	</desc>
	<defs>
		<clipPath id="clip0_21">
			<rect id="logo-white.svg" width="244.246719" height="35.962715" transform="translate(0.000000 -0.981323)" fill="white" fill-opacity="0"/>
		</clipPath>
		<clipPath id="clip0_28">
			<rect id="logo-white.svg" width="179.813553" height="35.962715" transform="translate(262.228027 -0.981323)" fill="white" fill-opacity="0"/>
		</clipPath>
	</defs>
	<g clip-path="url(#clip0_21)">
		<path id="Vector" d="M0 35.4L0 21.4L6.96 21.4L9.4 21.48L29.38 21.48L31.7 21.4L40.71 21.4L40.71 35.4L32.09 35.4L32.09 29.5L8.61 29.5L8.61 35.4L0 35.4ZM6.01 0L35.64 0L35.64 27.14L26.47 27.14L26.47 3.86L30.6 7.95L10.89 7.95L14.63 4.89C14.86 5.96 15 7.06 15.04 8.16C15.08 9.21 15.1 10.19 15.1 11.11C15.1 14.13 14.83 16.65 14.27 18.66C13.72 20.68 12.88 22.19 11.76 23.2C10.63 24.2 9.23 24.71 7.55 24.71L3.74 21.56C4.71 20.35 5.44 18.73 5.92 16.68C6.41 14.63 6.65 12.13 6.65 9.17C6.65 7.78 6.59 6.32 6.49 4.8C6.38 3.28 6.22 1.68 6.01 0Z" fill="#35ADE1" fill-opacity="1.000000" fill-rule="nonzero"/>
		<path id="Vector" d="M41.76 29.5L53.37 10.27L60.1 15.66L52.15 29.51L41.76 29.5ZM74.06 21.19L71.58 20.33L87.32 -0.01L96.96 -0.01L72.93 29.5L66.2 29.5L42.21 0L51.8 0L67.58 20.34L65.06 21.2L65.06 0L74.07 0L74.06 21.19ZM86.97 29.5L79.06 15.65L85.74 10.26L97.35 29.5L86.97 29.5Z" fill="#35ADE1" fill-opacity="1.000000" fill-rule="nonzero"/>
		<path id="Vector" d="M114.08 30.17C110.54 30.17 107.44 29.53 104.77 28.24C102.24 27.07 100.08 25.2 98.56 22.85C97.08 20.55 96.34 17.85 96.34 14.75C96.34 11.66 97.08 8.95 98.56 6.65C100.08 4.3 102.24 2.43 104.77 1.26C107.43 -0.03 110.54 -0.67 114.08 -0.67C117.62 -0.67 120.72 -0.03 123.38 1.26C125.92 2.43 128.07 4.3 129.6 6.65C131.08 8.95 131.82 11.66 131.82 14.75C131.82 17.85 131.08 20.55 129.6 22.85C128.07 25.2 125.92 27.07 123.38 28.24C120.72 29.53 117.62 30.17 114.08 30.17ZM114.08 22.03C115.64 22.07 117.18 21.76 118.61 21.14C119.81 20.61 120.83 19.74 121.54 18.63C122.21 17.44 122.56 16.11 122.56 14.75C122.56 13.39 122.21 12.06 121.54 10.88C120.83 9.77 119.81 8.89 118.61 8.36C115.7 7.18 112.44 7.18 109.52 8.36C108.32 8.89 107.3 9.77 106.59 10.88C105.92 12.06 105.57 13.39 105.57 14.75C105.57 16.11 105.92 17.44 106.59 18.63C107.3 19.74 108.32 20.61 109.52 21.14C110.96 21.77 112.51 22.07 114.08 22.03Z" fill="#35ADE1" fill-opacity="1.000000" fill-rule="nonzero"/>
		<path id="Vector" d="M135.71 0L144.88 0L144.88 29.5L135.71 29.5L135.71 0ZM140.87 10.43L162.38 10.43L162.38 18.53L140.87 18.53L140.87 10.43ZM158.69 0L167.85 0L167.85 29.5L158.69 29.5L158.69 0Z" fill="#35ADE1" fill-opacity="1.000000" fill-rule="nonzero"/>
		<path id="Vector" d="M172.95 0L182.12 0L182.12 29.5L172.95 29.5L172.95 0ZM178.12 10.43L199.65 10.43L199.65 18.53L178.12 18.53L178.12 10.43ZM195.94 0L205.1 0L205.1 29.5L195.94 29.5L195.94 0Z" fill="#35ADE1" fill-opacity="1.000000" fill-rule="nonzero"/>
		<path id="Vector" d="M210.22 29.5L210.22 0L219.27 0L219.27 24.59L216.83 24.04L232.29 0L244.25 0L244.25 29.5L235.2 29.5L235.2 4.37L237.6 4.92L221.83 29.5L210.22 29.5Z" fill="#35ADE1" fill-opacity="1.000000" fill-rule="nonzero"/>
	</g>
	<g clip-path="url(#clip0_28)">
		<path id="Vector" d="M262.22 -0.74L293.26 -0.74L293.26 7.4L262.22 7.4L262.22 -0.74ZM273.16 3.23L282.34 3.23L282.34 28.76L273.16 28.76L273.16 3.23Z" fill="#35ADE1" fill-opacity="1.000000" fill-rule="nonzero"/>
		<path id="Vector" d="M308.92 24.98L294.13 -0.74L304.2 -0.74L315.45 19L308.92 24.98ZM303.65 28.76L309.11 19.16L309.23 19.16L320.48 -0.74L330.36 -0.74L313.52 28.76L303.65 28.76Z" fill="#35ADE1" fill-opacity="1.000000" fill-rule="nonzero"/>
		<path id="Vector" d="M332.87 -0.74L342.04 -0.74L342.04 28.76L332.87 28.76L332.87 -0.74ZM338.03 9.68L359.55 9.68L359.55 17.78L338.03 17.78L338.03 9.68ZM355.85 -0.74L365.01 -0.74L365.01 28.76L355.85 28.76L355.85 -0.74Z" fill="#35ADE1" fill-opacity="1.000000" fill-rule="nonzero"/>
		<path id="Vector" d="M380.24 14.01L378.39 25.43L374.81 21.45L397.27 21.45L397.27 28.77L369.3 28.77L371.51 14.02L369.3 -0.73L397.07 -0.73L397.07 6.58L374.81 6.58L378.39 2.61L380.24 14.01ZM395.9 10.78L395.9 17.23L373.99 17.23L373.99 10.78L395.9 10.78Z" fill="#35ADE1" fill-opacity="1.000000" fill-rule="nonzero"/>
		<path id="Vector" d="M433.38 -0.74L433.38 23.68L430.04 20.66L438.46 20.66L438.46 34.66L429.89 34.66L429.89 26.99L432.1 28.75L401.72 28.75L401.72 -0.74L410.88 -0.74L410.88 23.68L407.86 20.66L427.57 20.66L424.23 23.68L424.23 -0.74L433.38 -0.74Z" fill="#35ADE1" fill-opacity="1.000000" fill-rule="nonzero"/>
	</g>
</svg>
