<svg width="23.000000" height="26.000000" viewBox="0 0 23 26" fill="none" xmlns="http://www.w3.org/2000/svg" xmlns:xlink="http://www.w3.org/1999/xlink">
	<desc>
			Created with Pixso.
	</desc>
	<defs>
		<clipPath id="clip0_82">
			<rect id="grommet-icons:shop" width="23.000000" height="26.000000" transform="translate(-0.500000 0.000000)" fill="white" fill-opacity="0"/>
		</clipPath>
	</defs>
	<rect id="grommet-icons:shop" width="23.000000" height="26.000000" transform="translate(-0.500000 0.000000)" fill="#FFFFFF" fill-opacity="0"/>
	<g clip-path="url(#clip0_82)">
		<path id="Vector" d="M20.43 23.12C20.43 24.22 19.53 25.12 18.43 25.12L3.5 25.12C2.39 25.12 1.5 24.22 1.5 23.12L1.5 9.48C1.5 8.38 2.39 7.48 3.5 7.48L6.23 7.48L15.69 7.48L18.43 7.48C19.53 7.48 20.43 8.38 20.43 9.48L20.43 23.12ZM6.23 7.48L6.23 5.28C6.23 2.84 8.35 0.87 10.96 0.87C13.58 0.87 15.69 2.85 15.69 5.28L15.69 7.48M15.69 7.48L15.69 9.69M6.23 9.69L6.23 " stroke="#242424" stroke-opacity="1.000000" stroke-width="1.500000" stroke-linecap="round"/>
		<path id="Vector" d="M10.24 17.9L8.52 " stroke="#242424" stroke-opacity="1.000000" stroke-width="1.500000" stroke-linejoin="round" stroke-linecap="round"/>
		<path id="Vector" d="M13.79 15.03L10.24 " stroke="#242424" stroke-opacity="1.000000" stroke-width="1.500000" stroke-linejoin="round" stroke-linecap="round"/>
	</g>
</svg>
